<svg xmlns="http://www.w3.org/2000/svg" width="48" height="48" viewBox="0 0 48 48" xmlns:xlink="http://www.w3.org/1999/xlink">
  <defs>
    <rect id="a" width="48" height="48" rx="4"/>
  </defs>
  <g fill="none" fill-rule="evenodd">
    <mask id="b" fill="white">
      <use xlink:href="#a"/>
    </mask>
    <use fill="#CB6765" xlink:href="#a"/>
    <polygon fill="#000000" fill-opacity=".198" points="48 0 48 48 0 48" style="mix-blend-mode:multiply" mask="url(#b)"/>
    <path fill="#FFFFFF" fill-rule="nonzero" d="M32.5344564,11.1768439 L35,9.06332613 L31.8912711,5.32402537 C33.0168453,4.18597731 34.0352221,2.88535096 34.8928025,1.42214631 L33.338438,0.446676551 C32.2128637,-0.257829389 30.7656968,0.013134434 29.9081164,1.04279696 C26.906585,4.78209772 22.4042879,6.94980831 17.5267994,6.94980831 C12.6493109,6.94980831 8.14701378,4.78209772 5.09188361,0.988604197 C4.28790199,-0.0410583307 2.78713629,-0.312022154 1.66156202,0.392483786 L0,1.36795355 C0.911179173,2.88535096 1.98315467,4.24017008 3.16232772,5.4324109 L0.267993874,8.90074783 L2.73353752,11.0142657 L5.62787136,7.54592872 C6.69984686,8.30462742 7.82542113,8.9549406 9.05819296,9.49686824 L7.45022971,13.7780967 L10.4517611,14.9161447 L12.1133231,10.5265308 C13.3460949,10.8516874 14.6324655,11.0684584 15.9724349,11.1768439 L15.9724349,16 L19.1883614,16 L19.1883614,11.1768439 C20.5283308,11.0684584 21.8683002,10.8516874 23.101072,10.5265308 L24.8162328,15.0245302 L27.8177642,13.8864822 L26.1562021,9.44267548 C27.3353752,8.90074783 28.4609495,8.25043466 29.532925,7.43754319 L32.5344564,11.1768439 Z" transform="translate(7 19)" mask="url(#b)"/>
  </g>
</svg>
