<svg xmlns="http://www.w3.org/2000/svg" width="48" height="48" viewBox="0 0 48 48" xmlns:xlink="http://www.w3.org/1999/xlink">
  <defs>
    <rect id="a" width="48" height="48" rx="4"/>
  </defs>
  <g fill="none" fill-rule="evenodd">
    <mask id="b" fill="white">
      <use xlink:href="#a"/>
    </mask>
    <use fill="#AB47BC" xlink:href="#a"/>
    <polygon fill="#000000" fill-opacity=".198" points="48 0 48 48 0 48" style="mix-blend-mode:multiply" mask="url(#b)"/>
    <g fill="#FFFFFF" fill-rule="nonzero" transform="translate(8 9)" mask="url(#b)">
      <path d="M1.19017307,1.00115967 C1.08517611,1.00115967 1,1.08066909 1,1.17818064 L1,6.79584628 C1,6.90935973 1.09910427,7.00187069 1.2207079,7.00187069 L30.4634327,7.00187069 C30.7586027,7.00187069 30.9991315,6.77784414 30.9991315,6.50181144 L30.9991315,1.50121892 C30.9991315,1.22518621 30.7586027,1.00115967 30.4634327,1.00115967 L1.19017307,1.00115967 Z M30.4096295,8.00187069 L1.29602951,8.00187069 C0.586696175,8.00187069 0.0096295082,7.46087069 0.0096295082,6.79587069 L0.0096295082,1.17887069 C0.0096295082,0.53037069 0.573362842,0.00187068966 1.26562951,0.00187068966 L30.4096295,0.00187068966 C31.2917628,0.00187068966 32.0096295,0.67487069 32.0096295,1.50187069 L32.0096295,6.50187069 C32.0096295,7.32887069 31.2917628,8.00187069 30.4096295,8.00187069 L30.4096295,8.00187069 Z"/>
      <path d="M24.5 3.20876724C24.224 3.20876724 24 2.96985345 24 2.67428448L24 .536353448C24 .240784483 24.224.00187068966 24.5.00187068966 24.776.00187068966 25 .240784483 25 .536353448L25 2.67428448C25 2.96985345 24.776 3.20876724 24.5 3.20876724M28.5 3.20876724C28.224 3.20876724 28 2.96985345 28 2.67428448L28 .536353448C28 .240784483 28.224.00187068966 28.5.00187068966 28.776.00187068966 29 .240784483 29 .536353448L29 2.67428448C29 2.96985345 28.776 3.20876724 28.5 3.20876724M22.5 4.27773276C22.224 4.27773276 22 4.03881897 22 3.74325L22 .536353448C22 .240784483 22.224.00187068966 22.5.00187068966 22.776.00187068966 23 .240784483 23 .536353448L23 3.74325C23 4.03881897 22.776 4.27773276 22.5 4.27773276M26.5 4.27773276C26.224 4.27773276 26 4.03881897 26 3.74325L26 .536353448C26 .240784483 26.224.00187068966 26.5.00187068966 26.776.00187068966 27 .240784483 27 .536353448L27 3.74325C27 4.03881897 26.776 4.27773276 26.5 4.27773276M20.5 3.20876724C20.224 3.20876724 20 2.96985345 20 2.67428448L20 .536353448C20 .240784483 20.224.00187068966 20.5.00187068966 20.776.00187068966 21 .240784483 21 .536353448L21 2.67428448C21 2.96985345 20.776 3.20876724 20.5 3.20876724M18.5 4.27773276C18.224 4.27773276 18 4.03881897 18 3.74325L18 .536353448C18 .240784483 18.224.00187068966 18.5.00187068966 18.776.00187068966 19 .240784483 19 .536353448L19 3.74325C19 4.03881897 18.776 4.27773276 18.5 4.27773276M16.5 3.20876724C16.224 3.20876724 16 2.96985345 16 2.67428448L16 .536353448C16 .240784483 16.224.00187068966 16.5.00187068966 16.776.00187068966 17 .240784483 17 .536353448L17 2.67428448C17 2.96985345 16.776 3.20876724 16.5 3.20876724M14.5 4.27773276C14.224 4.27773276 14 4.03881897 14 3.74325L14 .536353448C14 .240784483 14.224.00187068966 14.5.00187068966 14.776.00187068966 15 .240784483 15 .536353448L15 3.74325C15 4.03881897 14.776 4.27773276 14.5 4.27773276M12.5 3.20876724C12.224 3.20876724 12 2.96985345 12 2.67428448L12 .536353448C12 .240784483 12.224.00187068966 12.5.00187068966 12.776.00187068966 13 .240784483 13 .536353448L13 2.67428448C13 2.96985345 12.776 3.20876724 12.5 3.20876724M10.5 4.27773276C10.224 4.27773276 10 4.03881897 10 3.74325L10 .536353448C10 .240784483 10.224.00187068966 10.5.00187068966 10.776.00187068966 11 .240784483 11 .536353448L11 3.74325C11 4.03881897 10.776 4.27773276 10.5 4.27773276M8.51998901 3.20689655C8.24398901 3.20689655 8.01998901 2.96798276 8.01998901 2.67241379L8.01998901.534482759C8.01998901.238913793 8.24398901 0 8.51998901 0 8.79598901 0 9.01998901.238913793 9.01998901.534482759L9.01998901 2.67241379C9.01998901 2.96798276 8.79598901 3.20689655 8.51998901 3.20689655M4 3.00338643C3.45057702 3.00338643 3.00351229 3.45039508 3.00351229 3.99974915 3.00351229 4.54960492 3.45057702 4.99661357 4 4.99661357 4.54942298 4.99661357 4.99648771 4.54960492 4.99648771 3.99974915 4.99648771 3.45039508 4.54942298 3.00338643 4 3.00338643M4 6C2.89713999 6 2 5.10297253 2 3.99974915 2 2.89702747 2.89713999 2 4 2 5.10286001 2 6 2.89702747 6 3.99974915 6 5.10297253 5.10286001 6 4 6M14.5 25.2758621C14.224 25.2758621 14 25.0369483 14 24.7413793L14 21.5344828C14 21.2389138 14.224 21 14.5 21 14.776 21 15 21.2389138 15 21.5344828L15 24.7413793C15 25.0369483 14.776 25.2758621 14.5 25.2758621M12.5 24.2068966C12.224 24.2068966 12 23.9679828 12 23.6724138L12 21.5344828C12 21.2389138 12.224 21 12.5 21 12.776 21 13 21.2389138 13 21.5344828L13 23.6724138C13 23.9679828 12.776 24.2068966 12.5 24.2068966M10.5 25.2758621C10.224 25.2758621 10 25.0369483 10 24.7413793L10 21.5344828C10 21.2389138 10.224 21 10.5 21 10.776 21 11 21.2389138 11 21.5344828L11 24.7413793C11 25.0369483 10.776 25.2758621 10.5 25.2758621M8.5 24.2068966C8.224 24.2068966 8 23.9679828 8 23.6724138L8 21.5344828C8 21.2389138 8.224 21 8.5 21 8.776 21 9 21.2389138 9 21.5344828L9 23.6724138C9 23.9679828 8.776 24.2068966 8.5 24.2068966M4 24.0033864C3.45057702 24.0033864 3.00351229 24.4503951 3.00351229 24.9997492 3.00351229 25.5496049 3.45057702 25.9966136 4 25.9966136 4.54942298 25.9966136 4.99648771 25.5496049 4.99648771 24.9997492 4.99648771 24.4503951 4.54942298 24.0033864 4 24.0033864M4 27C2.89713999 27 2 26.1029725 2 24.9997492 2 23.8970275 2.89713999 23 4 23 5.10286001 23 6 23.8970275 6 24.9997492 6 26.1029725 5.10286001 27 4 27M5.73409697 11.6497052C5.6145396 11.6497052 5.49498222 11.6112224 5.39490025 11.53105 5.1622773 11.346119 5.12549042 11.0099293 5.31321173 10.7795672L6.42385107 9.41877414C6.61157238 9.18894655 6.95239206 9.15313621 7.18447402 9.33860172 7.41709697 9.52353276 7.45334288 9.85972241 7.26616255 10.0900845L6.1555232 11.4508776C6.04894943 11.5818259 5.89206419 11.6497052 5.73409697 11.6497052M7.3469855 13.0229517C7.22418222 13.0229517 7.10083796 12.9817966 6.99913304 12.8978828 6.77083796 12.7081414 6.74054288 12.3708828 6.93259206 12.1447966L8.78329697 9.96624483C8.97588714 9.73962414 9.31670681 9.71129655 9.54554288 9.90050345 9.77437894 10.0902448 9.80413304 10.4275034 9.61208386 10.6530552L7.76191992 12.8321414C7.65480517 12.9582793 7.50116583 13.0229517 7.3469855 13.0229517M8.98448878 14.4212655C8.8616855 14.4212655 8.73834124 14.3801103 8.6371773 14.296731 8.40834124 14.1064552 8.37804615 13.7691966 8.57009533 13.5431103L9.74565271 12.1593345C9.93770189 11.9321793 10.2785216 11.9043862 10.5073576 12.0930586 10.7367347 12.2828 10.7664888 12.6200586 10.5744396 12.8461448L9.3994232 14.2304552C9.29230845 14.3565931 9.1386691 14.4212655 8.98448878 14.4212655M10.621938 15.8190983C10.4991347 15.8190983 10.3757904 15.7779431 10.2746265 15.6940293 10.0457904 15.5042879 10.0154953 15.1670293 10.2075445 14.9409431L12.0988232 12.7142879C12.2908724 12.4876672 12.632774 12.4588052 12.8610691 12.6485466 13.0899052 12.8382879 13.1196593 13.1755466 12.9276101 13.4016328L11.0368724 15.6282879C10.9297576 15.7544259 10.7761183 15.8190983 10.621938 15.8190983M12.2594412 17.2168776C12.136638 17.2168776 12.0132937 17.1757224 11.9121298 17.0918086 11.6832937 16.9020672 11.6529986 16.5648086 11.8450478 16.3387224L13.060638 14.9079121C13.2532281 14.6812914 13.5945888 14.6524293 13.8228839 14.8421707 14.0517199 15.0313776 14.082015 15.3686362 13.8899658 15.5947224L12.6743757 17.0260672C12.5672609 17.1522052 12.4136216 17.2168776 12.2594412 17.2168776M13.8968904 18.6151914C13.7740871 18.6151914 13.6507429 18.5740362 13.5495789 18.4901224 13.3207429 18.300381 13.2904478 17.9631224 13.482497 17.7370362L15.4143494 15.4633466C15.6063986 15.2361914 15.9483003 15.2078638 16.1760544 15.3970707 16.4054314 15.5868121 16.4351855 15.9240707 16.2431363 16.1501569L14.3118248 18.424381C14.2047101 18.550519 14.0510707 18.6151914 13.8968904 18.6151914M15.5343937 20.0130241C15.4115904 20.0130241 15.2882462 19.971869 15.1865412 19.8879552 14.9582462 19.6982138 14.9279511 19.3609552 15.1200003 19.134869L16.3761642 17.6564897C16.5687544 17.4293345 16.909574 17.4004724 17.1384101 17.5907483 17.3672462 17.7799552 17.3970003 18.1172138 17.2049511 18.3433L15.9493281 19.8222138C15.8422134 19.9483517 15.688574 20.0130241 15.5343937 20.0130241M17.1718429 21.4108034C17.0490396 21.4108034 16.9256953 21.3696483 16.8239904 21.2857345 16.5956953 21.0959931 16.5654003 20.7587345 16.7574494 20.5326483L18.7293347 18.2119241C18.9213839 17.9853034 19.2627445 17.9564414 19.4921216 18.1461828 19.7204166 18.3353897 19.7507117 18.6726483 19.5586625 18.8987345L17.5867773 21.2199931C17.4796625 21.346131 17.3260232 21.4108034 17.1718429 21.4108034M18.8093462 22.8091172C18.6865429 22.8091172 18.5631986 22.7679621 18.4620347 22.6840483 18.2331986 22.4943069 18.2029035 22.1570483 18.3949527 21.9309621L19.6916904 20.4044793C19.8831986 20.1773241 20.2256412 20.1489966 20.4539363 20.3387379 20.6827724 20.5279448 20.7125265 20.8652034 20.5204773 21.0912897L19.2242806 22.6183069C19.1171658 22.7444448 18.9635265 22.8091172 18.8093462 22.8091172M20.4470658 24.2068966C20.3242625 24.2068966 20.2009183 24.1657414 20.0997544 24.0818276 19.8709183 23.8920862 19.8406232 23.5548276 20.0326724 23.3287414L22.0445904 20.9599138C22.2371806 20.7327586 22.5785412 20.7038966 22.8068363 20.8941724 23.0356724 21.0833793 23.0654265 21.4206379 22.8733773 21.6467241L20.8620003 24.0160862C20.7548855 24.1422241 20.6012462 24.2068966 20.4470658 24.2068966M27.0018568 24.0042996C26.9722574 24.0042996 26.942658 24.0058047 26.9130586 24.0083132 26.648169 24.0313918 26.407862 24.1568189 26.2367874 24.3605125 26.0657129 24.5642061 25.9844399 24.8225859 26.0075174 25.0874879 26.0305949 25.3528916 26.1555145 25.5932098 26.3597002 25.7647941 26.7801121 26.1169933 27.4102283 26.0623071 27.7639162 25.6413738 27.934489 25.4376803 28.015762 25.1793005 27.9926845 24.9138968 27.969607 24.6489948 27.8446874 24.4091782 27.6405017 24.2380957L27.6405017 24.2375939C27.4593934 24.0855763 27.2351403 24.0042996 27.0018568 24.0042996M26.998345 27C26.5443202 27 26.0887904 26.846979 25.7150352 26.5334113 25.3056603 26.1892393 25.0543162 25.7075993 25.0076595 25.1752868 24.9615045 24.6429743 25.1250537 24.1247096 25.4682062 23.7158173 25.8113586 23.3059216 26.2934778 23.0550674 26.8257655 23.0089103 27.356548 22.9582377 27.8762936 23.1253066 28.2856684 23.4689768 28.6950433 23.8121453 28.9458857 24.294287 28.9920407 24.8265995 29.0391991 25.3589121 28.8756498 25.8771768 28.5319957 26.2865708 28.1371697 26.7571732 27.5692624 27 26.998345 27"/>
      <path d="M2.99451815,8.06896552 L27.2359936,28.7641379 C27.3663706,28.8726379 27.5367804,28.9228793 27.71801,28.9111207 C27.8954526,28.8961552 28.0566657,28.8133103 28.1713542,28.6780862 L31.7910755,24.4155862 C31.8359772,24.3632069 31.8381411,24.3065517 31.8354362,24.2771552 C31.8332722,24.2482931 31.8208296,24.1927069 31.7678132,24.1488793 L12.371928,8.06896552 L2.99451815,8.06896552 Z M27.6563378,29.9827586 C27.2462722,29.9827586 26.8524362,29.8416552 26.5343378,29.5776207 L1.1876329,7.93908621 C1.01668208,7.79263793 0.955009953,7.55746552 1.03399356,7.34794828 C1.11297717,7.13896552 1.31530504,7 1.5408952,7 L12.568846,7 C12.6959772,7 12.8193214,7.04436207 12.9161575,7.12506897 L32.4629772,23.3300517 C32.7237313,23.5454483 32.8838624,23.8490345 32.9136165,24.1841552 C32.9428296,24.5192759 32.8389608,24.8458448 32.6198624,25.102931 L29.0001411,29.3648966 C28.6998952,29.7187241 28.277928,29.9357241 27.8121411,29.9758103 C27.7602067,29.9806207 27.7082722,29.9827586 27.6563378,29.9827586 L27.6563378,29.9827586 Z"/>
      <path d="M1.19262175,22 C1.08627284,22 1,22.0795 1,22.177 L1,27.8225 C1,27.9205 1.08627284,28 1.19262175,28 L24.6859131,28 L17.6430054,22 L1.19262175,22 Z M1.27401639,29 C0.571819672,29 0,28.4715 0,27.8225 L0,22.177 C0,21.5285 0.571819672,21 1.27401639,21 L17.9314362,21 C18.0612723,21 18.1867805,21.043 18.2846985,21.1215 L26.3548279,28.0124817 C26.5257787,28.1494817 26.614384,28.4402305 26.5354004,28.6362305 C26.4569578,28.8317305 26.2281189,29 26.015625,29 L1.27401639,29 Z"/>
    </g>
  </g>
</svg>
