<svg xmlns="http://www.w3.org/2000/svg" width="768" height="38" viewBox="0 0 768 38" xmlns:xlink="http://www.w3.org/1999/xlink">
  <defs>
    <linearGradient id="a" x1="50%" x2="50%" y1="1.73%" y2="97.608%">
      <stop stop-color="#F2F1F2" offset="0%"/>
      <stop stop-color="#E3E1E3" offset="51.515%"/>
      <stop stop-color="#DADADA" offset="100%"/>
    </linearGradient>
    <circle id="b" cx="19" cy="19" r="6"/>
    <circle id="c" cx="39" cy="19" r="6"/>
    <circle id="d" cx="59" cy="19" r="6"/>
    <linearGradient id="g" x1="50%" x2="50%" y1="0%" y2="100%">
      <stop stop-color="#F2F1F2" offset="0%"/>
      <stop stop-color="#F2F1F2" offset="100%"/>
    </linearGradient>
    <rect id="f" width="314" height="24" x="227" y="7" rx="4"/>
    <filter id="e" width="100.6%" height="108.3%" x="-.3%" y="-2.1%" filterUnits="objectBoundingBox">
      <feOffset dy=".5" in="SourceAlpha" result="shadowOffsetOuter1"/>
      <feGaussianBlur stdDeviation=".25" in="shadowOffsetOuter1" result="shadowBlurOuter1"/>
      <feColorMatrix values="0 0 0 0 0 0 0 0 0 0 0 0 0 0 0 0 0 0 0.197548687 0" in="shadowBlurOuter1"/>
    </filter>
  </defs>
  <g fill="none" fill-rule="evenodd">
    <path fill="url(#a)" d="M0,5.00922367 C0,2.24270583 2.23731134,0 5.00531942,0 L762.994681,0 C765.759042,0 768,2.23119173 768,5.00922367 L768,37 L0,37 L0,5.00922367 Z"/>
    <rect width="768" height="1" y="37" fill="#A3A1A3"/>
    <use fill="#FF6159" xlink:href="#b"/>
    <circle cx="19" cy="19" r="5.75" stroke="#000000" stroke-opacity=".105" stroke-width=".5"/>
    <use fill="#FFC02F" xlink:href="#c"/>
    <circle cx="39" cy="19" r="5.75" stroke="#000000" stroke-opacity=".1" stroke-width=".5"/>
    <g>
      <use fill="#29CE42" xlink:href="#d"/>
      <circle cx="59" cy="19" r="5.75" stroke="#000000" stroke-opacity=".101" stroke-width=".5"/>
    </g>
    <g>
      <use fill="black" filter="url(#e)" xlink:href="#f"/>
      <use fill="url(#g)" xlink:href="#f"/>
    </g>
  </g>
</svg>
