<svg xmlns="http://www.w3.org/2000/svg" width="48" height="48" viewBox="0 0 48 48" xmlns:xlink="http://www.w3.org/1999/xlink">
  <defs>
    <rect id="a" width="48" height="48" rx="4"/>
  </defs>
  <g fill="none" fill-rule="evenodd">
    <mask id="b" fill="white">
      <use xlink:href="#a"/>
    </mask>
    <use fill="#424242" xlink:href="#a"/>
    <polygon fill="#000000" fill-opacity=".202" points="48 0 48 48 0 48" style="mix-blend-mode:multiply" mask="url(#b)"/>
    <path fill="#FFFFFF" d="M12.3808594,20.5839844 L12.3808594,17.015625 L15.0527344,17.015625 L15.0527344,11.671875 L20.0097656,11.671875 L20.0097656,17.015625 L23.1210938,17.015625 L23.1210938,20.5839844 L20.0097656,20.5839844 L20.0097656,30.7089844 C20.0097656,31.4941446 20.109374,31.9833975 20.3085938,32.1767578 C20.5078135,32.3701182 21.1171824,32.4667969 22.1367188,32.4667969 C22.2890633,32.4667969 22.4501945,32.4638672 22.6201172,32.4580078 C22.7900399,32.4521484 22.9570304,32.4433594 23.1210938,32.4316406 L23.1210938,36.1757812 L20.7480469,36.2636719 C18.3808475,36.3457035 16.7636762,35.9355514 15.8964844,35.0332031 C15.3339816,34.4589815 15.0527344,33.5742247 15.0527344,32.3789062 L15.0527344,20.5839844 L12.3808594,20.5839844 Z M24.3691406,20.5839844 L24.3691406,17.015625 L27.0410156,17.015625 L27.0410156,11.671875 L31.9980469,11.671875 L31.9980469,17.015625 L35.109375,17.015625 L35.109375,20.5839844 L31.9980469,20.5839844 L31.9980469,30.7089844 C31.9980469,31.4941446 32.0976553,31.9833975 32.296875,32.1767578 C32.4960947,32.3701182 33.1054637,32.4667969 34.125,32.4667969 C34.2773445,32.4667969 34.4384757,32.4638672 34.6083984,32.4580078 C34.7783212,32.4521484 34.9453117,32.4433594 35.109375,32.4316406 L35.109375,36.1757812 L32.7363281,36.2636719 C30.3691288,36.3457035 28.7519575,35.9355514 27.8847656,35.0332031 C27.3222628,34.4589815 27.0410156,33.5742247 27.0410156,32.3789062 L27.0410156,20.5839844 L24.3691406,20.5839844 Z" mask="url(#b)"/>
  </g>
</svg>
