<svg xmlns="http://www.w3.org/2000/svg" width="48" height="48" viewBox="0 0 48 48" xmlns:xlink="http://www.w3.org/1999/xlink">
  <defs>
    <rect id="a" width="48" height="48" rx="4"/>
  </defs>
  <g fill="none" fill-rule="evenodd">
    <mask id="b" fill="white">
      <use xlink:href="#a"/>
    </mask>
    <use fill="#2196F3" xlink:href="#a"/>
    <polygon fill="#000000" fill-opacity=".198" points="48 0 48 48 0 48" style="mix-blend-mode:multiply" mask="url(#b)"/>
    <path fill="#FFFFFF" fill-rule="nonzero" d="M26.1269795,11.7606462 C25.4849658,11.1411472 24.7490569,11.1075066 24.5451116,11.111474 L22.3632984,11.111474 C21.9003007,9.90173575 20.9406834,9.49664371 20.3614852,9.46887163 L17.910451,9.46796243 C17.441877,8.10390733 16.326861,7.58185848 15.6671344,7.50209643 L15.6111253,7.49531872 L13.1058041,7.49531872 L13.1058041,2.75670883 C13.1195809,2.49816406 13.1062141,1.68665748 12.4853576,0.987479023 C11.9034533,0.332273012 11.0048474,0 9.81446925,0 C8.65172665,0 7.75098861,0.325082029 7.13726651,0.966071384 C6.42472893,1.71037946 6.39094305,2.60156544 6.39266515,2.79638322 L6.39266515,14.2132674 C5.18826424,12.9849317 4.05733941,12.3606387 3.03047836,12.3606387 C0.393703872,12.3606387 0,13.9036418 0,14.8234264 C0,15.6035241 0.33138041,16.6945698 0.369102506,16.8164033 L0.405348519,16.9331947 L7.95821412,29.1005861 L7.95821412,33 L23.3785148,33 L27,23.4808741 L27,14.2316994 C27,13.1510683 26.7062597,12.3196418 26.1269795,11.7606462 Z M25.1138952,23.1289292 L22.0817768,31.0989355 L9.8442369,31.0989355 L9.8442369,28.5549806 L2.13597267,16.137062 C2.0375672,15.7939612 1.88610478,15.1683456 1.88610478,14.8233438 C1.88610478,14.5531446 1.9368656,14.5005761 1.95351253,14.4833012 C2.05216401,14.381057 2.39330296,14.2617032 3.03039636,14.2617032 C3.97574487,14.2617032 5.5763918,15.9754715 6.36010934,17.1331371 L6.39258314,17.1108203 L6.39258314,20.2804734 L8.27868793,20.2804734 L8.27868793,2.79142392 L8.2781139,2.75745272 C8.27803189,2.75513838 8.29713895,2.49229555 8.49452392,2.28607138 C8.73569932,2.03413901 9.19213667,1.90098184 9.81446925,1.90098184 C10.4141686,1.90098184 10.8592073,2.02190607 11.0674169,2.24152035 C11.2070706,2.38881152 11.2220774,2.57238823 11.2232255,2.62983344 L11.2197813,2.64355416 L11.2197813,13.9686913 L13.1058861,13.9686913 L13.1058861,9.39638322 L15.4750797,9.39638322 C15.6253941,9.43415654 16.2425604,9.66360676 16.2425604,10.8785523 L16.2425604,13.9686913 L18.1286651,13.9686913 L18.1286651,11.368779 L20.2460228,11.368779 C20.2466788,11.3689443 20.2474169,11.3691922 20.2480729,11.3693575 L20.3166287,11.368779 L20.249713,11.3698535 C20.4448838,11.4283732 20.7434624,11.7670933 20.7434624,12.719444 L20.7434624,15.809583 L22.6295672,15.809583 L22.6295672,13.0124559 L24.5566743,13.0124559 L24.5976765,13.0115466 C24.5988246,13.0115466 24.7242916,13.0388228 24.822615,13.1337107 C25.0104055,13.3149731 25.1138952,13.7048566 25.1138952,14.2316168 L25.1138952,23.1289292 Z" transform="translate(10 7)" mask="url(#b)"/>
  </g>
</svg>
