<?xml version="1.0" encoding="utf-8"?>
<!-- Generated by IcoMoon.io -->
<!DOCTYPE svg PUBLIC "-//W3C//DTD SVG 1.1//EN" "http://www.w3.org/Graphics/SVG/1.1/DTD/svg11.dtd">
<svg version="1.1" xmlns="http://www.w3.org/2000/svg" xmlns:xlink="http://www.w3.org/1999/xlink" width="16" height="16" viewBox="0 0 16 16">
<g>
</g>
	<path d="M0.013 13.588c-0.004-0.040-0.007-0.079-0.009-0.119 0.002 0.040 0.005 0.080 0.009 0.119zM3.686 8.83c1.438 0.043 2.402-1.448 2.154-3.331s-1.616-3.393-3.053-3.436c-1.438-0.043-2.402 1.398-2.154 3.281s1.615 3.443 3.053 3.486zM16 4v-1.333c0-1.467-1.2-2.667-2.667-2.667h-10.666c-1.442 0-2.625 1.16-2.665 2.593 0.912-0.803 2.177-1.474 3.482-1.474 1.395 0 5.582 0 5.582 0l-1.249 1.057h-1.77c1.174 0.45 1.799 1.814 1.799 3.214 0 1.176-0.653 2.187-1.576 2.906-0.901 0.702-1.071 0.995-1.071 1.592 0 0.509 0.965 1.375 1.469 1.731 1.475 1.040 1.952 2.005 1.952 3.617 0 0.257-0.032 0.513-0.095 0.765h4.808c1.467 0 2.666-1.199 2.666-2.667v-8.333h-3v3h-1v-3h-3v-1h3v-3h1v3h3zM2.904 11.968c0.338 0 0.647-0.009 0.968-0.009-0.424-0.411-0.76-0.916-0.76-1.537 0-0.369 0.118-0.724 0.283-1.039-0.168 0.012-0.34 0.016-0.518 0.016-1.162 0-2.149-0.376-2.878-0.998v1.051l0 3.152c0.835-0.396 1.826-0.635 2.904-0.635zM0.053 13.863c-0.017-0.085-0.031-0.172-0.040-0.26 0.009 0.088 0.022 0.175 0.040 0.26zM7.116 14.888c-0.235-0.919-1.070-1.374-2.233-2.181-0.423-0.136-0.889-0.217-1.389-0.222-1.4-0.015-2.705 0.546-3.441 1.381 0.249 1.214 1.329 2.134 2.613 2.134h4.476c0.028-0.174 0.042-0.354 0.042-0.538 0-0.196-0.024-0.387-0.068-0.574z" fill="#ffffff"></path>
</svg>
