<?xml version="1.0" encoding="utf-8"?>
<!-- Generated by IcoMoon.io -->
<!DOCTYPE svg PUBLIC "-//W3C//DTD SVG 1.1//EN" "http://www.w3.org/Graphics/SVG/1.1/DTD/svg11.dtd">
<svg version="1.1" xmlns="http://www.w3.org/2000/svg" xmlns:xlink="http://www.w3.org/1999/xlink" width="14" height="14" viewBox="0 0 14 14">
<g id="icomoon-ignore">
	<line stroke-width="1" x1="" y1="" x2="" y2="" stroke="#449FDB" opacity=""></line>
</g>
	<path d="M0 11v-3q0-0.406 0.297-0.703t0.703-0.297h4q0.406 0 0.703 0.297t0.297 0.703v3q0 0.406-0.297 0.703t-0.703 0.297h-4q-0.406 0-0.703-0.297t-0.297-0.703zM0 5v-3q0-0.406 0.297-0.703t0.703-0.297h4q0.406 0 0.703 0.297t0.297 0.703v3q0 0.406-0.297 0.703t-0.703 0.297h-4q-0.406 0-0.703-0.297t-0.297-0.703zM7 11v-3q0-0.406 0.297-0.703t0.703-0.297h4q0.406 0 0.703 0.297t0.297 0.703v3q0 0.406-0.297 0.703t-0.703 0.297h-4q-0.406 0-0.703-0.297t-0.297-0.703zM7 5v-3q0-0.406 0.297-0.703t0.703-0.297h4q0.406 0 0.703 0.297t0.297 0.703v3q0 0.406-0.297 0.703t-0.703 0.297h-4q-0.406 0-0.703-0.297t-0.297-0.703z" fill="#000000"></path>
</svg>
