<?xml version="1.0" encoding="utf-8"?>
<!-- Generated by IcoMoon.io -->
<!DOCTYPE svg PUBLIC "-//W3C//DTD SVG 1.1//EN" "http://www.w3.org/Graphics/SVG/1.1/DTD/svg11.dtd">
<svg version="1.1" xmlns="http://www.w3.org/2000/svg" xmlns:xlink="http://www.w3.org/1999/xlink" width="16" height="16" viewBox="0 0 16 16">
<g>
</g>
	<path d="M8 0c-4.418 0-8 3.582-8 8s3.582 8 8 8 8-3.582 8-8-3.582-8-8-8zM12.751 12.751c-0.617 0.617-1.336 1.102-2.136 1.44-0.203 0.086-0.41 0.161-0.619 0.226v-1.199c0-0.63-0.216-1.094-0.648-1.391 0.271-0.026 0.52-0.063 0.746-0.109s0.466-0.115 0.719-0.203 0.479-0.194 0.68-0.316 0.393-0.281 0.578-0.477 0.34-0.417 0.465-0.664 0.224-0.544 0.297-0.891 0.109-0.728 0.109-1.145c0-0.807-0.263-1.495-0.789-2.063 0.24-0.625 0.214-1.305-0.078-2.039l-0.195-0.023c-0.135-0.016-0.379 0.042-0.73 0.172s-0.746 0.344-1.184 0.641c-0.62-0.172-1.263-0.258-1.93-0.258-0.672 0-1.313 0.086-1.922 0.258-0.276-0.188-0.538-0.342-0.785-0.465s-0.445-0.206-0.594-0.25-0.286-0.072-0.414-0.082-0.21-0.013-0.246-0.008-0.063 0.010-0.078 0.016c-0.292 0.74-0.318 1.419-0.078 2.039-0.526 0.568-0.789 1.255-0.789 2.063 0 0.417 0.036 0.798 0.109 1.145s0.172 0.643 0.297 0.891 0.28 0.469 0.465 0.664 0.378 0.354 0.578 0.477 0.427 0.228 0.68 0.316 0.492 0.156 0.719 0.203 0.475 0.083 0.746 0.109c-0.427 0.292-0.641 0.755-0.641 1.391v1.222c-0.236-0.070-0.468-0.153-0.697-0.25-0.8-0.338-1.519-0.823-2.136-1.44s-1.102-1.336-1.44-2.136c-0.35-0.827-0.527-1.707-0.527-2.615s0.177-1.787 0.527-2.615c0.338-0.8 0.823-1.519 1.44-2.136s1.336-1.102 2.136-1.44c0.827-0.35 1.707-0.527 2.615-0.527s1.787 0.177 2.615 0.527c0.8 0.338 1.519 0.823 2.136 1.44s1.102 1.336 1.44 2.136c0.35 0.827 0.527 1.707 0.527 2.615s-0.177 1.787-0.527 2.615c-0.338 0.8-0.823 1.519-1.44 2.136z" fill="#ffffff"></path>
</svg>
