<?xml version="1.0" encoding="utf-8"?>
<!-- Generated by IcoMoon.io -->
<!DOCTYPE svg PUBLIC "-//W3C//DTD SVG 1.1//EN" "http://www.w3.org/Graphics/SVG/1.1/DTD/svg11.dtd">
<svg version="1.1" xmlns="http://www.w3.org/2000/svg" xmlns:xlink="http://www.w3.org/1999/xlink" width="14" height="14" viewBox="0 0 14 14">
<g id="icomoon-ignore">
	<line stroke-width="1" x1="" y1="" x2="" y2="" stroke="#449FDB" opacity=""></line>
</g>
	<path d="M0 6.5q0-1.117 0.434-2.137t1.172-1.758 1.758-1.172 2.137-0.434 2.137 0.434 1.758 1.172 1.172 1.758 0.434 2.137q0 1.719-0.969 3.117l2.68 2.68q0.289 0.289 0.289 0.703 0 0.406-0.297 0.703t-0.703 0.297q-0.422 0-0.703-0.297l-2.68-2.672q-1.398 0.969-3.117 0.969-1.117 0-2.137-0.434t-1.758-1.172-1.172-1.758-0.434-2.137zM2 6.5q0 1.445 1.027 2.473t2.473 1.027 2.473-1.027 1.027-2.473-1.027-2.473-2.473-1.027-2.473 1.027-1.027 2.473z" fill="#000000"></path>
</svg>
